<?xml version="1.0" encoding="UTF-8"?>
<svg width="255px" height="255px" viewBox="0 0 255 255" version="1.1" xmlns="http://www.w3.org/2000/svg" xmlns:xlink="http://www.w3.org/1999/xlink">
    <!-- Generator: Sketch 52.6 (67491) - http://www.bohemiancoding.com/sketch -->
    <title>Group 32</title>
    <desc>Created with Sketch.</desc>
    <g id="Page-1" stroke="none" stroke-width="1" fill="none" fill-rule="evenodd">
        <g id="Group-32" transform="translate(-10.000000, -10.000000)" fill="#0062CC">
            <path d="M-8.32343812,161.690848 L283.105134,161.690848 C296.510848,161.690848 307.390848,150.804448 307.390848,137.390848 C307.390848,123.977248 296.510848,113.090848 283.105134,113.090848 L-8.32343812,113.090848 C-21.7291524,113.090848 -32.6091524,123.977248 -32.6091524,137.390848 C-32.6091524,150.804448 -21.7291524,161.690848 -8.32343812,161.690848 Z" id="Shape-path" transform="translate(137.390848, 137.390848) rotate(-225.000000) translate(-137.390848, -137.390848) "></path>
            <path d="M-8.32343812,161.690848 L283.105134,161.690848 C296.510848,161.690848 307.390848,150.804448 307.390848,137.390848 C307.390848,123.977248 296.510848,113.090848 283.105134,113.090848 L-8.32343812,113.090848 C-21.7291524,113.090848 -32.6091524,123.977248 -32.6091524,137.390848 C-32.6091524,150.804448 -21.7291524,161.690848 -8.32343812,161.690848 Z" id="Shape-path-Copy" transform="translate(137.390848, 137.390848) scale(-1, 1) rotate(-225.000000) translate(-137.390848, -137.390848) "></path>
        </g>
    </g>
</svg>