<?xml version="1.0" encoding="UTF-8"?>
<svg width="340px" height="243px" viewBox="0 0 340 243" version="1.1" xmlns="http://www.w3.org/2000/svg" xmlns:xlink="http://www.w3.org/1999/xlink">
    <!-- Generator: Sketch 52.6 (67491) - http://www.bohemiancoding.com/sketch -->
    <title>Hamburger_icon</title>
    <desc>Created with Sketch.</desc>
    <g id="Page-1" stroke="none" stroke-width="1" fill="none" fill-rule="evenodd">
        <g id="Hamburger_icon" fill="#0062CC" fill-rule="nonzero">
            <path d="M24.2857143,48.6 L315.714286,48.6 C329.12,48.6 340,37.7136 340,24.3 C340,10.8864 329.12,0 315.714286,0 L24.2857143,0 C10.88,0 0,10.8864 0,24.3 C0,37.7136 10.88,48.6 24.2857143,48.6 Z M315.714286,97.2 L24.2857143,97.2 C10.88,97.2 0,108.0864 0,121.5 C0,134.9136 10.88,145.8 24.2857143,145.8 L315.714286,145.8 C329.12,145.8 340,134.9136 340,121.5 C340,108.0864 329.12,97.2 315.714286,97.2 Z M315.714286,194.4 L24.2857143,194.4 C10.88,194.4 0,205.2864 0,218.7 C0,232.1136 10.88,243 24.2857143,243 L315.714286,243 C329.12,243 340,232.1136 340,218.7 C340,205.2864 329.12,194.4 315.714286,194.4 Z" id="Shape"></path>
        </g>
    </g>
</svg>