<?xml version="1.0" encoding="UTF-8"?>
<svg width="82px" height="76px" viewBox="0 0 82 76" version="1.1" xmlns="http://www.w3.org/2000/svg" xmlns:xlink="http://www.w3.org/1999/xlink">
    <!-- Generator: Sketch 52.6 (67491) - http://www.bohemiancoding.com/sketch -->
    <title>Group</title>
    <desc>Created with Sketch.</desc>
    <g id="Page-1" stroke="none" stroke-width="1" fill="none" fill-rule="evenodd">
        <g id="Group">
            <path d="M14.090218,5.95175436e-12 L25.9462697,1.09636744e-11 C32.5628516,1.3753894e-11 37.9309359,5.35568423 37.9462376,11.9722485 L37.9665509,20.7558516 C37.9818776,27.3832509 32.6217337,32.7682443 25.9943345,32.783571 C25.2511648,32.7852897 24.5094422,32.7179671 23.7787268,32.5824711 L10.6538017,30.148725 C4.49986827,29.0076053 0.0326290855,23.6433906 0.0239915781,17.3845587 L0.0194452013,14.0902046 C0.00872072372,6.31913135 6.29972638,0.0107378768 14.0707996,1.33991803e-05 C14.0772724,4.46639847e-06 14.0837452,5.94806008e-12 14.090218,5.95175436e-12 Z" id="Path-9" fill="#000000"></path>
            <path d="M46.0248506,12.025966 L46.057041,27.6023987 C46.0680044,32.907429 49.8436943,37.4577076 55.0556588,38.4470973 L73.0151167,41.8563495 C77.1221057,42.6359811 81.0834945,39.938625 81.8631261,35.831636 C81.9514093,35.3665724 81.9958711,34.8942525 81.9959271,34.4208837 L82,10.0011668 C82.0006535,4.47831931 77.5240308,0.00063705551 72.0011834,-1.64708529e-05 C72.0007889,-1.65175273e-05 72.0003945,-1.65408645e-05 72.0000001,-1.65408645e-05 L58.0248249,0.00116670329 C51.3974079,0.00116670329 46.0248249,5.37374971 46.0248249,12.0011667 C46.0248249,12.0094331 46.0248335,12.0176996 46.0248506,12.025966 Z" id="Path-10" fill="#74BFF0"></path>
            <path d="M10.0745267,76 L24.9861512,76 C31.0612834,76 35.9861512,71.0751322 35.9861512,65 C35.9861512,64.9953866 35.9861483,64.9907733 35.9861425,64.9861599 L35.9683572,50.8505763 C35.961661,45.5284383 32.1456946,40.9744644 26.9068448,40.036568 L12.9703375,37.5415548 C6.99028201,36.4709625 1.27460263,40.4508688 0.204010313,46.4309243 C0.0879009414,47.0794816 0.0302962289,47.7371594 0.0318908719,48.3960262 L0.0745560202,66.0242027 C0.0878999561,71.5375847 4.56112863,76 10.0745267,76 Z" id="Path-11" fill="#74BFF0"></path>
            <path d="M52.0289266,76 L72,76.0014175 C77.5228475,76.0014175 82,71.524265 82,66.0014175 C82,66.000945 82,66.0004724 81.9999999,65.9999999 L81.9975148,58.4686206 C81.99696,54.5548996 79.164941,51.2161404 75.303742,50.5771144 L53.3826457,46.9491864 C49.0236608,46.2277771 44.9051876,49.1766147 44.1837783,53.5355996 C44.1138997,53.9578281 44.0780154,54.3849833 44.0764707,54.8129524 L44.0289787,67.9711257 C44.0130319,72.3893749 47.5818031,75.984001 52.0000523,75.9999479 C52.009677,75.9999826 52.0193018,76 52.0289266,76 Z" id="Path-12" fill="#74BFF0"></path>
        </g>
    </g>
</svg>